<?xml version="1.0" encoding="UTF-8"?>
<svg width="750px" height="350px" viewBox="0 0 750 350" version="1.1" xmlns="http://www.w3.org/2000/svg" xmlns:xlink="http://www.w3.org/1999/xlink">
    <!-- Generator: Sketch 39.1 (31720) - http://www.bohemiancoding.com/sketch -->
    <title>Slice 1</title>
    <desc>Created with Sketch.</desc>
    <defs></defs>
    <g id="Page-1" stroke="none" stroke-width="1" fill="none" fill-rule="evenodd">
        <rect id="Rectangle" fill="#E6F7FF" x="0" y="0" width="750" height="350"></rect>
        <g id="img" transform="translate(275.000000, 85.000000)" fill="#FFFFFF">
            <path d="M189.360593,1.02368816e-05 L9.98436396,1.02368816e-05 C7.33765846,-0.00378336528 4.79805853,1.04694187 2.92521592,2.92063758 C1.05237332,4.79433328 -2.7085099e-06,7.33722019 0,9.98892219 L0,169.754353 C0,175.256115 4.46443695,179.728975 9.97010045,179.728975 L189.360593,179.728975 C192.005984,179.736569 194.545625,178.689028 196.418881,176.8176 C198.292137,174.946172 199.344967,172.404747 199.344957,169.754353 L199.344957,9.98892219 C199.344959,7.33722022 198.292583,4.79433334 196.419741,2.92063764 C194.546898,1.04694194 192.007298,-0.00378331708 189.360593,1.02368816e-05 L189.360593,1.02368816e-05 Z M169.448918,149.762239 L29.8960382,149.762239 L29.8960382,99.8605499 L59.8063397,69.9081041 L109.628315,119.838374 L139.524353,89.8716377 L169.434655,119.838374 L169.434655,149.79082 L169.448918,149.762239 Z M149.480191,69.9081041 C138.47146,69.9081041 129.547121,60.9669266 129.547121,49.9374252 C129.547121,38.9079238 138.47146,29.9667463 149.480191,29.9667463 C160.488921,29.9667465 169.41326,38.9079239 169.41326,49.9374252 C169.41326,60.9669264 160.488921,69.9081039 149.480191,69.9081041 L149.480191,69.9081041 Z" id="Shape"></path>
        </g>
    </g>
</svg>